<?xml version="1.0" encoding="UTF-8"?>
<svg width="101px" height="22px" viewBox="0 0 101 22" version="1.1" xmlns="http://www.w3.org/2000/svg" xmlns:xlink="http://www.w3.org/1999/xlink">
    <!-- Generator: Sketch 53 (72520) - https://sketchapp.com -->
    <title>SVG Layer</title>
    <desc>Created with Sketch.</desc>
    <g id="Page-1" stroke="none" stroke-width="1" fill="none" fill-rule="evenodd" opacity="0.451264881">
        <g id="SVG-Layer" transform="translate(0.687368, 0.552895)" fill="#000000" fill-rule="nonzero">
            <g id="footer-full-logo">
                <path d="M12.6198947,5.53878947 C12.7136842,5.51794737 12.7553684,5.54921053 12.8126842,5.61173684 C13.1357368,5.97126316 14.1674211,7.23221053 14.4487895,7.57610526 C14.5008947,7.63863158 14.4644211,7.70636842 14.4227368,7.74284211 C12.3385263,9.36852632 10.0198421,11.6715789 8.72763158,13.3181053 C8.70157895,13.3545789 8.72242105,13.3545789 8.74326316,13.3493684 C10.9942105,12.3802105 16.2828947,10.8326842 18.6641053,10.4002105 L18.6641053,7.38331579 L9.34247368,0.0104210526 L0.00521052632,7.37810526 L0.00521052632,10.6763684 C2.89705263,8.95689474 9.58736842,6.29431579 12.6198947,5.53878947 Z" id="Path"></path>
                <path d="M5.03336842,18.2107895 C4.95521053,18.2524737 4.89268421,18.2420526 4.83015789,18.1795263 L3.08984211,16.1057368 C3.04294737,16.0484211 3.03773684,16.0171579 3.10026316,15.9285789 C4.44457895,13.959 7.19052632,10.89 8.94126316,9.59257895 C8.97252632,9.57173684 8.96210526,9.54568421 8.92563158,9.56131579 C7.10194737,10.1553158 1.91747368,12.3854211 -2.84217094e-14,13.4692105 L-2.84217094e-14,20.5138421 L18.6588947,20.5138421 L18.6588947,13.7297368 C16.1161579,14.1622105 8.49836842,16.4287895 5.03336842,18.2107895 Z" id="Path"></path>
                <path d="M76.0945263,7.74284211 L80.1483158,7.74284211 L81.3206842,11.583 C81.7114737,12.8543684 82.368,15.2407895 82.368,15.2407895 C82.3784211,15.2720526 82.4201053,15.2668421 82.4253158,15.2407895 C82.4253158,15.2407895 83.1026842,12.8074737 83.4882632,11.583 L84.7179474,7.74284211 L87.7087895,7.74284211 L88.9176316,11.583 C89.3240526,12.8960526 89.9597368,15.2407895 89.9597368,15.2407895 C89.9701579,15.2720526 90.0066316,15.2720526 90.0222632,15.2407895 C90.0222632,15.2407895 90.6787895,12.87 91.0695789,11.583 L92.2419474,7.74284211 L96.0091579,7.74284211 L91.9345263,20.4304737 L88.2298421,20.4304737 L87.219,17.2416316 C86.8334211,15.9911053 86.1508421,13.563 86.1508421,13.563 C86.1404211,13.5317368 86.0987368,13.5317368 86.0935263,13.563 C86.0935263,13.563 85.4109474,15.9442105 84.9993158,17.2207895 L83.9676316,20.4304737 L80.1952105,20.4304737 L76.0945263,7.74284211 Z" id="Path"></path>
                <rect id="Rectangle" x="48.8122105" y="1.03689474" width="4.10068421" height="19.3935789"></rect>
                <rect id="yui_3_18_1_1_1554470508855_79" x="55.9506316" y="1.03689474" width="4.10068421" height="19.3935789"></rect>
                <path d="M71.9417368,14.1309474 C71.9417368,12.2447368 70.5922105,10.9577368 68.9977895,10.9577368 C67.3668947,10.9577368 66.0173684,12.2447368 66.0173684,14.1309474 C66.0173684,16.0327895 67.3668947,17.3041579 68.9977895,17.3041579 C70.5922105,17.3041579 71.9417368,16.0327895 71.9417368,14.1309474 M62.0834211,14.1309474 C62.0834211,10.2751579 65.1941053,7.41978947 68.9977895,7.41978947 C72.765,7.41978947 75.8756842,10.2751579 75.8756842,14.1309474 C75.8756842,17.9971579 72.765,20.8577368 68.9977895,20.8577368 C65.1941053,20.8525263 62.0834211,17.9971579 62.0834211,14.1309474" id="Shape"></path>
                <path d="M25.0886842,2.83452632 L25.0886842,6.57568421 L32.3365263,6.57568421 C32.3677895,6.57568421 32.3782105,6.60173684 32.3625789,6.62778947 L25.0834737,18.9923684 C24.9063158,19.3154211 24.8646316,19.3831579 24.8646316,19.7062105 L24.8646316,20.4356842 L38.9851579,20.4356842 L38.9851579,16.7049474 L31.1433158,16.7049474 C31.1120526,16.7049474 31.1016316,16.6736842 31.1172632,16.6528421 L38.4797368,4.11631579 C38.5370526,3.99647368 38.5995789,3.90789474 38.5995789,3.61610526 L38.5995789,2.83452632 L25.0886842,2.83452632 Z" id="Path"></path>
                <path d="M41.6008421,7.74284211 L45.7015263,7.74284211 L45.7015263,20.4304737 L41.6008421,20.4304737 L41.6008421,7.74284211 Z M43.6485789,1.386 C44.9251579,1.386 45.9828947,2.41768421 45.9828947,3.68905263 C45.9828947,4.96042105 44.9251579,5.99210526 43.6485789,5.99210526 C42.372,5.99210526 41.3142632,4.96042105 41.3142632,3.68905263 C41.3142632,2.41768421 42.372,1.386 43.6485789,1.386 L43.6485789,1.386 Z" id="Shape"></path>
                <path d="M98.7498947,5.93478947 C98.7498947,5.57526316 98.4945789,5.31473684 98.1402632,5.31473684 L97.4889474,5.31473684 L97.4889474,7.08631579 L97.7807368,7.08631579 L97.7807368,6.55484211 L98.0673158,6.55484211 L98.3903684,7.08631579 L98.7238421,7.08631579 L98.3747368,6.51315789 C98.5987895,6.42457895 98.7498947,6.21094737 98.7498947,5.93478947 Z M98.1246316,6.29431579 L97.7807368,6.29431579 L97.7807368,5.57526316 L98.1246316,5.57526316 C98.3174211,5.57526316 98.4581053,5.72636842 98.4581053,5.93478947 C98.4581053,6.14321053 98.3174211,6.29431579 98.1246316,6.29431579 Z" id="Shape"></path>
                <path d="M98.0516842,4.69989474 C97.2075789,4.69989474 96.5197895,5.38768421 96.5197895,6.23178947 C96.5197895,7.07589474 97.2075789,7.76368421 98.0516842,7.76368421 C98.8957895,7.76368421 99.5835789,7.07589474 99.5835789,6.23178947 C99.5835789,5.38768421 98.8957895,4.69989474 98.0516842,4.69989474 Z M98.0516842,7.46668421 C97.3691053,7.46668421 96.8167895,6.91436842 96.8167895,6.23178947 C96.8167895,5.54921053 97.3691053,4.99689474 98.0516842,4.99689474 C98.7342632,4.99689474 99.2865789,5.54921053 99.2865789,6.23178947 C99.2865789,6.91436842 98.7342632,7.46668421 98.0516842,7.46668421 Z" id="Shape"></path>
            </g>
        </g>
    </g>
</svg>